HIERARCHY
ROOT ui
{
	 OFFSET 0 0 0
	 CHANNELS 3 XPosition YPosition Z Position
	 EndSite
	 {
	 OFFSET 0 -1 0
	 }
}
ROOT li
{
	 OFFSET 0 0 0
	 CHANNELS 3 XPosition YPosition Z Position
	 EndSite
	 {
	 OFFSET 0 -1 0
	 }
}
ROOT ul
{
	 OFFSET 0 0 0
	 CHANNELS 3 XPosition YPosition Z Position
	 EndSite
	 {
	 OFFSET 0 -1 0
	 }
}
ROOT ll
{
	 OFFSET 0 0 0
	 CHANNELS 3 XPosition YPosition Z Position
	 EndSite
	 {
	 OFFSET 0 -1 0
	 }
}
ROOT tt
{
	 OFFSET 0 0 0
	 CHANNELS 3 XPosition YPosition Z Position
	 EndSite
	 {
	 OFFSET 0 -1 0
	 }
}
ROOT tb
{
	 OFFSET 0 0 0
	 CHANNELS 3 XPosition YPosition Z Position
	 EndSite
	 {
	 OFFSET 0 -1 0
	 }
}
ROOT td
{
	 OFFSET 0 0 0
	 CHANNELS 3 XPosition YPosition Z Position
	 EndSite
	 {
	 OFFSET 0 -1 0
	 }
}
ROOT v
{
	 OFFSET 0 0 0
	 CHANNELS 3 XPosition YPosition Z Position
	 EndSite
	 {
	 OFFSET 0 -1 0
	 }
}
ROOT bn
{
	 OFFSET 0 0 0
	 CHANNELS 3 XPosition YPosition Z Position
	 EndSite
	 {
	 OFFSET 0 -1 0
	 }
}
MOTION
Frames: 29
Frame Time: 0.002
0.003326422929763794	-0.0012554119825363159	0		0.40391064453125	-2.49915087890625	0		-1.03528515625	-0.0470161018371582	0		-0.8097928466796875	-2.46684228515625	0		0.9897860107421875	-1.07095751953125	0		2.741295166015625	-0.27454782104492187	0		4.3691689453125	-0.0185823974609375	0		5.6982197265625	0.21063153076171875	0		-0.2238953399658203	5.91983447265625	0		
-0.0054134149551391605	0.011989901542663575	0		0.4020157165527344	-2.4989873046875	0		-1.0500599365234375	-0.03669927597045899	0		-0.8886470336914063	-2.4627705078125	0		1.02083056640625	-1.0761829833984375	0		2.739401611328125	-0.2743856506347656	0		4.36727587890625	-0.01842091369628906	0		5.7012197265625	0.2017337646484375	0		-0.24471356201171876	5.9262216796875	0		
0.0045470700263977055	-0.004997918128967285	0		0.4100812072753906	-2.506952392578125	0		-1.03901708984375	-0.046698863983154294	0		-0.7899061279296875	-2.498805908203125	0		1.00785107421875	-1.0879005126953125	0		2.74346826171875	-0.2823046875	0		4.35734375	-0.026175537109375	0		5.7034755859375	0.20983575439453125	0		-0.1973755645751953	5.94079541015625	0		
0.009850178718566895	0.0010612369775772094	0		0.38439736938476565	-2.499528076171875	0		-1.09870947265625	-0.0398730697631836	0		-0.8595397338867188	-2.486862548828125	0		1.0099653930664063	-1.0978052978515624	0		2.77989892578125	-0.26561273193359375	0		4.373646484375	-0.02024748229980469	0		5.7107080078125	0.2098697204589844	0		-0.23123268127441407	5.9333154296875	0		
0.011216075897216796	0.005157798767089844	0		0.41373712158203124	-2.497761474609375	0		-1.03034814453125	-0.036566097259521486	0		-0.7872855224609375	-2.492602294921875	0		1.0192715454101562	-1.0988028564453125	0		2.756160400390625	-0.27022149658203126	0		4.3670595703125	-0.012057876586914063	0		5.70413330078125	0.21905885314941406	0		-0.21594882202148438	5.93024755859375	0		
0.006587162017822266	0.0013159250020980835	0		0.3791096801757812	-2.501249755859375	0		-1.124829345703125	-0.027347509384155273	0		-0.8708977661132813	-2.4945126953125	0		1.0236063232421875	-1.1057508544921875	0		2.75151953125	-0.27506399536132814	0		4.37540625	-0.01805387878417969	0		5.70745703125	0.21112150573730468	0		-0.23264613342285156	5.9205478515625	0		
0.024030900955200194	-0.005795145988464355	0		0.42164483642578127	-2.50065625	0		-1.0484251708984376	-0.03815345001220703	0		-0.8362205810546876	-2.4818251953125	0		1.0599892578125	-1.1180860595703126	0		2.750047119140625	-0.27495278930664063	0		4.364005859375	-0.011825790405273437	0		5.7010908203125	0.2202896728515625	0		-0.23312771606445312	5.9196484375	0		
-0.003310827970504761	-0.00438660192489624	0		0.37425506591796875	-2.503011962890625	0		-1.1147760009765626	-0.037284027099609374	0		-0.8797992553710937	-2.500225830078125	0		1.0535626220703125	-1.1239256591796876	0		2.77877197265625	-0.2682074279785156	0		4.3675556640625	-0.01978575134277344	0		5.72671044921875	0.218068359375	0		-0.23928865051269532	5.93580859375	0		
0.02852384567260742	0.00131584894657135	0		0.4050267333984375	-2.502298095703125	0		-1.0359918212890624	-0.03613370132446289	0		-0.8701322631835937	-2.508261474609375	0		1.0592557373046876	-1.12991748046875	0		2.75051611328125	-0.26980145263671873	0		4.371404296875	-0.012759811401367187	0		5.72059521484375	0.22820919799804687	0		-0.2064442596435547	5.94149951171875	0		
0.001414767026901245	0.001705320954322815	0		0.36807666015625	-2.487792724609375	0		-1.1200262451171874	-0.029069433212280272	0		-0.8451810302734375	-2.5024833984375	0		1.0500242919921876	-1.139742431640625	0		2.79044873046875	-0.2662099609375	0		4.38021044921875	-0.01980535888671875	0		5.71948486328125	0.2282764892578125	0		-0.25573614501953124	5.925150390625	0		
4.251680076122284E-4	0.0017801179885864257	0		0.4278481750488281	-2.507437744140625	0		-1.049068115234375	-0.03383919143676758	0		-0.8851784057617188	-2.50194482421875	0		1.0419241943359374	-1.1485888671875	0		2.776376220703125	-0.27299298095703123	0		4.3832919921875	-0.013795074462890624	0		5.72748388671875	0.22722116088867186	0		-0.2377611846923828	5.92000244140625	0		
-0.007516866207122803	-0.004069272994995117	0		0.39010546875	-2.49493701171875	0		-1.055880615234375	-0.02869476318359375	0		-0.815176513671875	-2.51170947265625	0		1.0740196533203126	-1.1509169921875	0		2.78452587890625	-0.2710487060546875	0		4.392349609375	-0.019869720458984375	0		5.71683837890625	0.24637057495117187	0		-0.22445614624023438	5.9319052734375	0		
0.0177119140625	-0.005315112113952637	0		0.3971964111328125	-2.50597265625	0		-1.0506978759765624	-0.033695232391357424	0		-0.8820097045898437	-2.515861328125	0		1.0521239013671875	-1.161615966796875	0		2.7626611328125	-0.2797622375488281	0		4.38756982421875	-0.021795150756835937	0		5.72585791015625	0.22726686096191406	0		-0.2582560119628906	5.92435888671875	0		
-0.005886774063110351	-9.873430132865905E-4	0		0.37462884521484374	-2.496661376953125	0		-1.1163531494140626	-0.03385853576660156	0		-0.8327833862304688	-2.5243857421875	0		1.0803668212890625	-1.169913818359375	0		2.842099609375	-0.27268338012695315	0		4.3950771484375	-0.008879470825195312	0		5.7333896484375	0.2421635284423828	0		-0.24174397277832033	5.93221630859375	0		
0.026639049530029296	0.004675174236297607	0		0.40304815673828126	-2.49695654296875	0		-1.0368665771484376	-0.031736337661743164	0		-0.8293153686523438	-2.520367919921875	0		1.11581640625	-1.1693021240234376	0		2.777604736328125	-0.26791311645507815	0		4.3944765625	-0.013883544921875	0		5.7238984375	0.24624119567871094	0		-0.22621481323242187	5.931083984375	0		
-0.01867269706726074	0.01626043128967285	0		0.3896064453125	-2.4927568359375	0		-1.0582755126953125	-0.028416082382202147	0		-0.8108427734375	-2.523525390625	0		1.108243896484375	-1.1781854248046875	0		2.792082275390625	-0.27408724975585935	0		4.39403369140625	-0.013902877807617188	0		5.72345703125	0.2461918487548828	0		-0.2747406005859375	5.91571142578125	0		
0.015719101905822753	-0.005100218772888183	0		0.3970644836425781	-2.503806396484375	0		-1.0586328125	-0.028339887619018556	0		-0.8502395629882813	-2.5219912109375	0		1.1048262939453124	-1.1811204833984374	0		2.810658935546875	-0.2793199768066406	0		4.3995849609375	-0.022008155822753905	0		5.74010498046875	0.2459188690185547	0		-0.2749687805175781	5.9157705078125	0		
-0.01054444122314453	-0.0037382190227508547	0		0.3967231140136719	-2.503763671875	0		-1.0529705810546874	-0.03333085632324219	0		-0.8067630615234375	-2.537439208984375	0		1.1024832763671875	-1.18407177734375	0		2.830480224609375	-0.27057781982421875	0		4.40746484375	-0.009155181884765625	0		5.74901171875	0.2607164611816406	0		-0.27509426879882815	5.91583056640625	0		
0.015234357833862304	-0.004996257781982422	0		0.3705038146972656	-2.49841357421875	0		-1.1181861572265626	-0.03347232055664062	0		-0.8789561767578125	-2.5295048828125	0		1.1081572265625	-1.1911234130859376	0		2.8042548828125	-0.2712987060546875	0		4.4163564453125	-0.001330428957939148	0		5.74881201171875	0.26059951782226565	0		-0.22595237731933593	5.9303046875	0		
-7.807469964027405E-4	0.006244464874267578	0		0.4012962646484375	-2.49674609375	0		-1.0511842041015624	-0.02118795394897461	0		-0.807275390625	-2.537286865234375	0		1.1020548095703124	-1.1840377197265626	0		2.840083740234375	-0.2727704162597656	0		4.40711865234375	-0.009304336547851563	0		5.7517802734375	0.2694258728027344	0		-0.2410251007080078	5.92054296875	0		
-0.007963271141052245	-6.215620040893555E-4	0		0.39018136596679687	-2.490579345703125	0		-1.131314453125	-0.023140920639038085	0		-0.8094884033203125	-2.5391845703125	0		1.1137567138671876	-1.19717041015625	0		2.849938232421875	-0.27594143676757815	0		4.4309384765625	-0.016686203002929688	0		5.747619140625	0.2633199462890625	0		-0.24091458129882812	5.9206005859375	0		
-0.008025248527526856	-5.729269981384278E-4	0		0.38627865600585937	-2.4694990234375	0		-1.0594306640625	-0.027916494369506835	0		-0.8157178344726562	-2.545033203125	0		1.11061376953125	-1.200127685546875	0		2.80391748046875	-0.27144699096679686	0		4.420966796875	-0.00967181396484375	0		5.75654248046875	0.26104342651367185	0		-0.2748110656738281	5.91606787109375	0		
-0.011095924377441406	-0.003489048957824707	0		0.3677738342285156	-2.50024755859375	0		-1.13544873046875	-0.025909835815429688	0		-0.8069739379882812	-2.55506201171875	0		1.112374755859375	-1.2131474609375	0		2.833676513671875	-0.28787127685546876	0		4.42682861328125	-0.01885650634765625	0		5.75651806640625	0.26086428833007813	0		-0.2925756530761719	5.9193427734375	0		
-0.008075119972229004	-4.792200028896332E-4	0		0.39866864013671877	-2.499592041015625	0		-1.118551025390625	-0.0330240364074707	0		-0.8790010375976562	-2.54711181640625	0		1.117383544921875	-1.20720703125	0		2.856914794921875	-0.26621881103515627	0		4.416904296875	-0.0118526611328125	0		5.7646943359375	0.2755823364257812	0		-0.22325050354003906	5.92756396484375	0		
-9.919829964637756E-4	0.0064806809425354	0		0.37566796875	-2.491283447265625	0		-1.0454619140625	-0.02582301139831543	0		-0.8051688232421875	-2.552931396484375	0		1.3091380615234376	-1.2245389404296876	0		2.845721435546875	-0.2811510009765625	0		4.4629169921875	-0.011526580810546874	0		5.760630859375	0.26945013427734377	0		-0.224982421875	5.9306416015625	0		
0.014880971908569336	-0.004668808937072754	0		0.4244329833984375	-2.503849365234375	0		-1.05544189453125	-0.02461730194091797	0		-0.8123531494140624	-2.5607705078125	0		1.1032742919921874	-1.20903173828125	0		2.849779541015625	-0.27626165771484373	0		4.46293017578125	-0.011635421752929687	0		5.7696484375	0.2691700134277344	0		-0.10661528015136719	5.9412548828125	0		
-0.004018991947174072	0.0026069300174713134	0		0.3874971008300781	-2.492367919921875	0		-1.0554295654296875	-0.024536493301391602	0		-0.81445263671875	-2.56267333984375	0		1.2930113525390625	-1.22934765625	0		2.85568505859375	-0.2843883056640625	0		4.4629482421875	-0.011732864379882812	0		5.7696708984375	0.2690154113769531	0		-0.23965632629394532	5.92093115234375	0		
-0.011078824996948242	-0.0032626440525054933	0		0.3973213195800781	-2.501457763671875	0		-1.1313992919921876	-0.02252775764465332	0		-0.8816002807617187	-2.568781982421875	0		1.171007568359375	-1.2268482666015625	0		2.84388623046875	-0.26828750610351565	0		4.46296533203125	-0.011817230224609374	0		5.77377783203125	0.27582977294921873	0		-0.25742022705078127	5.924203125	0		
-0.0039975628852844235	0.002694917917251587	0		0.3812243347167969	-2.504228271484375	0		-1.0454228515625	-0.025509302139282226	0		-0.7968296508789062	-2.58275732421875	0		1.303947021484375	-1.2304713134765626	0		2.855689453125	-0.284468994140625	0		4.4729521484375	-0.014010452270507812	0		5.777904296875	0.284663330078125	0		-0.2582352294921875	5.9252666015625	0		
